<svg width="22" height="20" viewBox="0 0 22 20" fill="none" xmlns="http://www.w3.org/2000/svg">
<g clip-path="url(#clip0_4_15)">
<path d="M0 8.67652C0 12.9907 4.10811 16.4967 9.15315 16.4967C11.4775 16.4967 13.6036 15.7501 15.2207 14.5263L21.0541 19.5101C21.1622 19.6024 21.3018 19.6486 21.4459 19.6486C21.5901 19.6486 21.7297 19.6024 21.8378 19.5101C22.0541 19.3253 22.0541 19.029 21.8378 18.8443L16 13.8605C17.4324 12.4789 18.3063 10.6662 18.3063 8.67652C18.3063 4.36234 14.1982 0.856354 9.15315 0.856354C4.10811 0.856354 0 4.36234 0 8.67652ZM17.2027 8.67652C17.2027 12.4673 13.5901 15.5538 9.15315 15.5538C4.71622 15.5538 1.1036 12.4673 1.1036 8.67652C1.1036 4.88574 4.71622 1.79924 9.15315 1.79924C13.5901 1.79924 17.2027 4.88189 17.2027 8.67652Z" fill="black"/>
</g>
<defs>
<clipPath id="clip0_4_15">
<rect width="22" height="18.7961" fill="white" transform="translate(0 0.85437)"/>
</clipPath>
</defs>
</svg>
